<svg width="1237" height="76" viewBox="0 0 1237 76" fill="none" xmlns="http://www.w3.org/2000/svg">
<path d="M19.1718 43.1381L28.8933 38.3015L34.4888 41.9288L35.6192 53.8289L28.7237 53.7656L29.7411 45.4927L28.5542 44.7287L22.7326 49.8199L19.1718 43.1381Z" fill="black"/>
<path d="M35.1108 41.4193L43.7021 48.4832L47.0932 41.6738L40.1975 38.5556V37.0283L47.0932 33.8464L43.7021 27.1008L35.1108 34.1646V41.4193Z" fill="black"/>
<path d="M34.4888 33.5921L35.6192 21.6919L28.7237 21.8192L29.7411 30.0921L28.5542 30.8557L22.676 25.7647L19.1718 32.383L28.8933 37.2194L34.4888 33.5921Z" fill="black"/>
<path d="M70.0979 36.3342V47.4832H73.8089V33.2749H68.4044V36.3342H70.0979Z" fill="black"/>
<path d="M69.9818 31.2785C70.322 31.676 70.84 31.8747 71.5358 31.8747C72.2319 31.8747 72.7419 31.676 73.0664 31.2785C73.407 30.8635 73.5767 30.345 73.5767 29.7229C73.5767 29.0833 73.407 28.5647 73.0664 28.1672C72.7419 27.7524 72.2319 27.5449 71.5358 27.5449C70.84 27.5449 70.322 27.7524 69.9818 28.1672C69.6573 28.5647 69.4948 29.0833 69.4948 29.7229C69.4948 30.345 69.6573 30.8635 69.9818 31.2785Z" fill="black"/>
<path d="M57.1785 47.1718C58.2298 47.7076 59.521 47.9756 61.0516 47.9756C62.4899 47.9756 63.7267 47.7251 64.7631 47.2236C65.7991 46.7225 66.5952 46.0223 67.1519 45.1238C67.7243 44.2073 68.0102 43.1444 68.0102 41.9345C68.0102 40.7592 67.7401 39.7653 67.1987 38.9528C66.6726 38.1232 65.9385 37.475 64.9949 37.0085C64.0516 36.5243 62.9616 36.2219 61.7244 36.101L60.4256 35.9714C59.6524 35.902 59.0957 35.6689 58.7555 35.2712C58.4153 34.8737 58.2452 34.4069 58.2452 33.8713C58.2452 33.4562 58.3383 33.0761 58.5233 32.7304C58.7091 32.3674 58.9873 32.0822 59.3586 31.8747C59.7451 31.6674 60.2168 31.5637 60.7735 31.5637C61.3608 31.5637 61.8482 31.6845 62.2348 31.9267C62.3198 31.9779 62.4007 32.0326 62.4765 32.0906L62.4949 32.105C62.5233 32.1269 62.5512 32.1496 62.5784 32.1726C62.8133 32.3732 63.0003 32.611 63.1393 32.8859C63.3401 33.2663 63.4413 33.6896 63.4413 34.1564H67.1519C67.1519 32.9118 66.8968 31.8315 66.3868 30.9155C65.8765 29.9821 65.142 29.2648 64.1834 28.7634C63.2397 28.2449 62.1033 27.9856 60.7735 27.9856C59.5053 27.9856 58.4076 28.2277 57.4797 28.7116C56.5521 29.1784 55.8253 29.8525 55.2996 30.7339C54.7889 31.6155 54.5337 32.6613 54.5337 33.8713C54.5337 35.5478 55.0368 36.8959 56.0417 37.9159C57.0467 38.9357 58.3923 39.5233 60.0777 39.6789L61.3535 39.8085C62.3892 39.9122 63.1393 40.1456 63.6033 40.5085C64.0669 40.8542 64.2991 41.3295 64.2991 41.9345C64.2991 42.2125 64.2585 42.4733 64.1769 42.7169C64.1163 42.8977 64.0336 43.069 63.9282 43.2309C63.6803 43.594 63.3171 43.8788 62.8378 44.0866C62.3585 44.2938 61.7631 44.3975 61.0516 44.3975C60.2631 44.3975 59.6214 44.2767 59.1268 44.0347C58.6317 43.7752 58.2609 43.4382 58.013 43.0236C57.7812 42.6086 57.6655 42.1593 57.6655 41.6752H53.9774C53.9774 42.9024 54.2479 43.9915 54.7889 44.9422C55.3303 45.8754 56.1268 46.6189 57.1785 47.1718Z" fill="black"/>
<path d="M82.0893 47.6644C80.8058 47.6644 79.7698 47.4918 78.9813 47.1457C78.1924 46.783 77.6127 46.1868 77.2415 45.3573C76.8859 44.5102 76.7081 43.3693 76.7081 41.9345V36.3083H74.7829V33.2749H76.7081V29.4377H80.164V33.2749H83.8755V36.3083H80.164V42.0903C80.164 42.7643 80.3188 43.2828 80.628 43.6455C80.9525 43.9915 81.4088 44.1641 81.9966 44.1641H83.8755V47.6644H82.0893Z" fill="black"/>
<path fill-rule="evenodd" clip-rule="evenodd" d="M88.3436 47.3534C89.1784 47.7684 90.1374 47.9757 91.2198 47.9757C92.2865 47.9757 93.2301 47.7684 94.0496 47.3534C94.8692 46.9384 95.5496 46.3594 96.0906 45.6164C96.632 44.8729 96.9956 44.0262 97.1806 43.0755H93.7711C93.6167 43.5076 93.3228 43.8703 92.8899 44.1641C92.4569 44.4583 91.8999 44.6052 91.2198 44.6052C90.7984 44.6052 90.4217 44.5495 90.0899 44.4378C89.8374 44.353 89.611 44.2361 89.4106 44.0866C88.9467 43.741 88.6064 43.2566 88.39 42.6347C88.3298 42.4575 88.2785 42.2721 88.2352 42.079C88.1911 41.8834 88.1555 41.6798 88.1287 41.468H97.4128V40.0678C97.4128 38.7715 97.1653 37.5788 96.6707 36.4899C96.1757 35.3835 95.4565 34.4934 94.5136 33.8193C93.5857 33.1279 92.4412 32.7822 91.0803 32.7822C90.0443 32.7822 89.1164 32.9897 88.2968 33.4045C87.4934 33.802 86.8206 34.3464 86.2793 35.0378C85.7383 35.7292 85.3206 36.5158 85.0264 37.3974C84.7482 38.2614 84.6092 39.1689 84.6092 40.1196V40.6381C84.6092 41.5544 84.7482 42.4531 85.0264 43.3346C85.3206 44.1988 85.7383 44.9851 86.2793 45.6939C86.836 46.3855 87.5237 46.9384 88.3436 47.3534ZM88.1926 38.9042C88.203 38.8493 88.2137 38.7952 88.2256 38.742C88.2578 38.5954 88.2949 38.455 88.3371 38.3207C88.3608 38.2443 88.3861 38.1698 88.4133 38.0974C88.6451 37.4577 88.9853 36.9738 89.4336 36.6455C89.6014 36.5227 89.783 36.4229 89.9781 36.3461C90.306 36.2173 90.6738 36.1528 91.0803 36.1528C91.7148 36.1528 92.2401 36.3171 92.6577 36.6455C93.0907 36.9565 93.4156 37.4145 93.632 38.0195C93.6496 38.0683 93.6661 38.118 93.6822 38.1683C93.7079 38.2485 93.7316 38.3308 93.7539 38.4151C93.7864 38.5405 93.8152 38.6704 93.8405 38.8046C93.8588 38.9036 93.8745 39.0048 93.8887 39.1086H88.157C88.1677 39.0392 88.1796 38.9712 88.1926 38.9042Z" fill="black"/>
<path d="M98.9442 47.4832V33.2749H101.89V36.8534C101.93 36.6407 101.976 36.4365 102.027 36.2407C102.07 36.0758 102.117 35.9167 102.168 35.7639C102.493 34.7959 102.98 34.07 103.63 33.5859C104.279 33.0847 105.075 32.8342 106.019 32.8342H106.181C107.14 32.8342 107.936 33.0847 108.57 33.5859C109.22 34.07 109.707 34.7959 110.031 35.7639L110.057 35.837L110.079 35.9037C110.093 35.8566 110.109 35.81 110.124 35.7639C110.464 34.7959 110.959 34.07 111.609 33.5859C112.258 33.0847 113.055 32.8342 113.998 32.8342H114.16C115.119 32.8342 115.923 33.0847 116.572 33.5859C117.237 34.07 117.74 34.7959 118.08 35.7639C118.42 36.7319 118.591 37.9419 118.591 39.3937V47.4832H114.879V39.1604C114.879 38.3825 114.694 37.7517 114.323 37.2678C113.967 36.7837 113.457 36.5417 112.792 36.5417C112.127 36.5417 111.601 36.7924 111.215 37.2936C110.828 37.7775 110.634 38.4257 110.634 39.2382V47.4832H106.9V39.1604C106.9 38.3825 106.715 37.7517 106.343 37.2678C105.988 36.7837 105.485 36.5417 104.836 36.5417C104.155 36.5417 103.622 36.7924 103.235 37.2936C102.849 37.7775 102.655 38.4257 102.655 39.2382V47.4832H98.9442Z" fill="black"/>
<path fill-rule="evenodd" clip-rule="evenodd" d="M128.504 44.7453V47.4832H131.45V38.7715C131.45 37.4577 131.218 36.3862 130.754 35.5564C130.29 34.7095 129.61 34.0786 128.713 33.6638C127.832 33.249 126.741 33.0415 125.442 33.0415C125.161 33.0415 124.867 33.0448 124.56 33.0517C124.379 33.0559 124.194 33.0611 124.004 33.0674C123.494 33.0847 122.999 33.1106 122.52 33.1452L122.153 33.1728C121.965 33.1874 121.789 33.2018 121.622 33.2165C121.498 33.2273 121.379 33.2382 121.267 33.249V36.7492C121.747 36.7146 122.28 36.6799 122.868 36.6455C123.032 36.6359 123.195 36.6269 123.357 36.6185C123.59 36.6064 123.821 36.596 124.048 36.5868C124.229 36.5795 124.407 36.573 124.584 36.5676C125.14 36.5503 125.589 36.5417 125.929 36.5417C126.61 36.5417 127.104 36.7231 127.414 37.0861C127.723 37.4492 127.878 37.9936 127.878 38.7197V38.7715H125.581C124.453 38.7715 123.455 38.9357 122.589 39.2641C121.723 39.5751 121.05 40.0678 120.572 40.7419C120.092 41.3988 119.852 42.2458 119.852 43.2827C119.852 44.2335 120.045 45.0545 120.432 45.7461C120.819 46.4202 121.352 46.9384 122.032 47.3016C122.729 47.6643 123.533 47.8459 124.445 47.8459C125.326 47.8459 126.068 47.6643 126.672 47.3016C127.29 46.9384 127.769 46.4202 128.11 45.7461C128.169 45.6322 128.225 45.5144 128.278 45.3919C128.351 45.2189 128.417 45.0369 128.474 44.8459L128.504 44.7453ZM127.878 42.2199V41.079H125.558C124.909 41.079 124.406 41.2605 124.051 41.6235C123.711 41.9692 123.54 42.4445 123.54 43.0493C123.54 43.3341 123.583 43.5932 123.667 43.8262C123.753 44.06 123.88 44.2678 124.051 44.4498C124.406 44.7954 124.909 44.968 125.558 44.968C125.682 44.968 125.801 44.9611 125.917 44.9478C126.011 44.9367 126.102 44.9209 126.191 44.9007C126.361 44.8622 126.522 44.8069 126.672 44.7346C127.012 44.562 127.29 44.2767 127.506 43.8789C127.723 43.4815 127.847 42.9286 127.878 42.2199Z" fill="black"/>
<path d="M133.671 47.4832V33.2749H136.616V37.9646C136.757 36.6259 137.113 35.5464 137.684 34.7268C138.457 33.6379 139.57 33.0935 141.024 33.0935H141.511V36.6714H140.583C139.562 36.6714 138.774 36.9824 138.217 37.6047C137.66 38.2097 137.382 39.0913 137.382 40.2492V47.4832H133.671Z" fill="black"/>
<path d="M146.217 40.8456H147.446L151.459 47.4832H155.634L150.546 39.3315L154.729 33.2749H150.833L146.217 40.0306V28.5562H142.506V47.4832H146.217V40.8456Z" fill="black"/>
<path d="M591.631 51.5236L593.506 50.9943V28.4256L591.631 27.8966V27.3677H600.067C603.232 27.3677 605.555 27.9437 607.034 29.0956C608.533 30.2241 609.283 31.7051 609.283 33.539C609.283 34.8083 608.96 35.8309 608.315 36.6068C607.669 37.3828 606.846 37.9587 605.846 38.3349C604.784 38.7578 603.639 38.9813 602.41 39.0048V39.181C603.93 39.2515 605.253 39.5102 606.378 39.9569C607.523 40.3801 608.471 41.0383 609.221 41.9317C609.991 42.8251 610.377 43.9652 610.377 45.3523C610.377 47.4445 609.616 49.0904 608.096 50.2892C606.575 51.4645 604.107 52.0525 600.691 52.0525H591.631V51.5236ZM600.067 38.6521C600.754 38.6521 601.389 38.4406 601.972 38.0174C602.576 37.5707 603.055 36.9596 603.41 36.1836C603.785 35.3842 603.972 34.5028 603.972 33.539C603.972 32.5045 603.785 31.5876 603.41 30.7883C603.055 29.989 602.576 29.366 601.972 28.9193C601.389 28.4726 600.754 28.2493 600.067 28.2493H598.661V38.6521H600.067ZM600.691 51.1708C601.983 51.1708 603.035 50.6537 603.847 49.6193C604.659 48.5849 605.065 47.1626 605.065 45.3523C605.065 43.542 604.659 42.1196 603.847 41.0853C603.035 40.0509 601.983 39.5337 600.691 39.5337H598.661V51.1708H600.691Z" fill="black"/>
<path d="M610.991 51.5236L612.866 50.9943V28.4256L610.991 27.8966V27.3677H615.053C616.928 27.3677 617.865 28.4256 617.865 30.5415V50.9943L619.739 51.5236V52.0525H610.991V51.5236Z" fill="black"/>
<path d="M628.326 52.5814C625.743 52.5814 623.713 51.7585 622.234 50.113C620.776 48.4436 620.047 46.1517 620.047 43.2366C620.047 40.3214 620.776 38.0409 622.234 36.3954C623.713 34.726 625.743 33.8914 628.326 33.8914C630.909 33.8914 632.929 34.726 634.387 36.3954C635.866 38.0409 636.605 40.3214 636.605 43.2366C636.605 46.1517 635.866 48.4436 634.387 50.113C632.929 51.7585 630.909 52.5814 628.326 52.5814ZM628.326 51.876C629.159 51.876 629.857 51.2178 630.419 49.9012C631.003 48.5849 631.294 46.3631 631.294 43.2366C631.294 40.1096 631.003 37.8882 630.419 36.5716C629.857 35.255 629.159 34.5968 628.326 34.5968C627.493 34.5968 626.785 35.255 626.202 36.5716C625.639 37.8882 625.358 40.1096 625.358 43.2366C625.358 46.3631 625.639 48.5849 626.202 49.9012C626.785 51.2178 627.493 51.876 628.326 51.876Z" fill="black"/>
<path d="M644.895 52.5814C643.604 52.5814 642.448 52.2639 641.428 51.6293C640.928 51.3235 640.522 50.9946 640.209 50.6419C639.876 51.1591 639.511 51.5588 639.116 51.8407C638.928 51.982 638.72 52.1112 638.491 52.2287H637.71V46.2339H638.959C639.23 47.2213 639.626 48.1382 640.147 48.9843C641.251 50.7946 642.625 51.6998 644.271 51.6998C645.145 51.6998 645.801 51.4645 646.239 50.9943C646.697 50.5006 646.926 49.7955 646.926 48.8786C646.926 48.103 646.614 47.4562 645.989 46.9391C645.385 46.3984 644.427 45.7402 643.115 44.9643C641.99 44.3297 641.073 43.7655 640.365 43.2718C639.678 42.7546 639.084 42.1196 638.584 41.3675C638.105 40.5916 637.866 39.6864 637.866 38.6521C637.866 37.2415 638.397 36.1014 639.459 35.2315C640.542 34.3381 642.198 33.8914 644.427 33.8914C645.531 33.8914 646.551 34.2206 647.488 34.8787C647.947 35.1845 648.342 35.502 648.676 35.8309C648.946 35.408 649.311 35.0083 649.769 34.6321C650.123 34.3968 650.332 34.2676 650.394 34.2441H651.175V40.2388H649.925C649.613 39.228 649.228 38.3231 648.769 37.5237C647.728 35.6899 646.489 34.773 645.051 34.773C644.489 34.773 644.01 35.0083 643.614 35.4785C643.219 35.9487 643.021 36.5363 643.021 37.2415C643.021 38.1349 643.354 38.8873 644.021 39.4985C644.687 40.0861 645.697 40.7681 647.051 41.5437C648.155 42.1784 649.03 42.7429 649.675 43.2366C650.342 43.7067 650.904 44.2944 651.363 44.9995C651.842 45.705 652.081 46.5276 652.081 47.468C652.081 50.8768 649.686 52.5814 644.895 52.5814Z" fill="black"/>
<path d="M660.205 52.5814C658.914 52.5814 657.758 52.2639 656.738 51.6293C656.237 51.3235 655.832 50.9946 655.519 50.6419C655.186 51.1591 654.821 51.5588 654.425 51.8407C654.238 51.982 654.03 52.1112 653.801 52.2287H653.02V46.2339H654.269C654.54 47.2213 654.936 48.1382 655.457 48.9843C656.56 50.7946 657.935 51.6998 659.58 51.6998C660.455 51.6998 661.111 51.4645 661.549 50.9943C662.007 50.5006 662.236 49.7955 662.236 48.8786C662.236 48.103 661.924 47.4562 661.299 46.9391C660.695 46.3984 659.737 45.7402 658.425 44.9643C657.3 44.3297 656.383 43.7655 655.675 43.2718C654.988 42.7546 654.394 42.1196 653.894 41.3675C653.415 40.5916 653.176 39.6864 653.176 38.6521C653.176 37.2415 653.707 36.1014 654.769 35.2315C655.852 34.3381 657.508 33.8914 659.737 33.8914C660.841 33.8914 661.861 34.2206 662.798 34.8787C663.257 35.1845 663.652 35.502 663.985 35.8309C664.256 35.408 664.621 35.0083 665.079 34.6321C665.433 34.3968 665.641 34.2676 665.704 34.2441H666.485V40.2388H665.235C664.923 39.228 664.538 38.3231 664.079 37.5237C663.038 35.6899 661.799 34.773 660.361 34.773C659.799 34.773 659.32 35.0083 658.924 35.4785C658.529 35.9487 658.331 36.5363 658.331 37.2415C658.331 38.1349 658.664 38.8873 659.331 39.4985C659.997 40.0861 661.007 40.7681 662.361 41.5437C663.465 42.1784 664.34 42.7429 664.985 43.2366C665.652 43.7067 666.214 44.2944 666.673 44.9995C667.152 45.705 667.391 46.5276 667.391 47.468C667.391 50.8768 664.996 52.5814 660.205 52.5814Z" fill="black"/>
<path d="M676.452 52.5814C673.87 52.5814 671.839 51.7585 670.36 50.113C668.902 48.4436 668.173 46.1517 668.173 43.2366C668.173 40.3214 668.902 38.0409 670.36 36.3954C671.839 34.726 673.87 33.8914 676.452 33.8914C679.035 33.8914 681.055 34.726 682.513 36.3954C683.992 38.0409 684.732 40.3214 684.732 43.2366C684.732 46.1517 683.992 48.4436 682.513 50.113C681.055 51.7585 679.035 52.5814 676.452 52.5814ZM676.452 51.876C677.285 51.876 677.983 51.2178 678.546 49.9012C679.129 48.5849 679.42 46.3631 679.42 43.2366C679.42 40.1096 679.129 37.8882 678.546 36.5716C677.983 35.255 677.285 34.5968 676.452 34.5968C675.619 34.5968 674.911 35.255 674.328 36.5716C673.766 37.8882 673.485 40.1096 673.485 43.2366C673.485 46.3631 673.766 48.5849 674.328 49.9012C674.911 51.2178 675.619 51.876 676.452 51.876Z" fill="black"/>
<path d="M685.68 51.5236L687.554 50.9943V35.4785L685.68 34.9495V34.4206H688.492C689.72 34.4206 690.689 34.867 691.397 35.7604C691.668 36.1131 691.897 36.5481 692.085 37.0653C692.397 36.4071 692.73 35.8779 693.084 35.4785C694.021 34.4206 695.094 33.8914 696.302 33.8914C697.51 33.8914 698.573 34.1971 699.489 34.8083C700.405 35.3962 701.113 36.2071 701.613 37.2415C701.926 36.5598 702.259 36.0074 702.613 35.5842C703.571 34.4559 704.644 33.8914 705.831 33.8914C706.935 33.8914 707.924 34.1501 708.799 34.6673C709.695 35.1845 710.382 35.8899 710.861 36.783C711.361 37.6764 711.611 38.6521 711.611 39.7099V50.9943L713.485 51.5236V52.0525H709.424C707.549 52.0525 706.612 50.9943 706.612 48.8786V39.7099C706.612 38.1819 706.404 37.0418 705.987 36.2893C705.571 35.5137 705.102 35.1257 704.582 35.1257C703.977 35.1257 703.363 35.5959 702.738 36.5363C702.488 36.983 702.269 37.4532 702.082 37.9469V50.9943L703.956 51.5236V52.0525H695.209V51.5236L697.083 50.9943V39.7099C697.083 38.1819 696.875 37.0418 696.458 36.2893C696.042 35.5137 695.573 35.1257 695.052 35.1257C694.448 35.1257 693.834 35.5959 693.209 36.5363C692.959 36.983 692.741 37.4532 692.553 37.9469V50.9943L694.428 51.5236V52.0525H685.68V51.5236Z" fill="black"/>
<path fill-rule="evenodd" clip-rule="evenodd" d="M566.201 58.7857C566 58.8307 565.791 58.8454 565.579 58.8275C559.035 58.2669 552.84 54.1868 549.311 47.2869C545.782 40.3873 545.749 32.292 548.591 25.6146C549.004 24.6451 549.898 24.0622 550.848 24.1436C553.287 24.3524 555.677 25.0501 557.899 26.2003C559.575 22.5106 562.056 19.3631 565.079 17.0522C565.868 16.4491 566.9 16.4491 567.689 17.0522C570.671 19.3317 573.125 22.4253 574.8 26.0503C576.937 24.9893 579.224 24.3432 581.555 24.1436C582.505 24.0622 583.399 24.6451 583.812 25.6146C586.654 32.292 586.621 40.3873 583.092 47.2869C579.562 54.1868 573.368 58.2669 566.824 58.8275C566.612 58.8454 566.403 58.8307 566.201 58.7857ZM570.996 54.6032C574.919 53.0973 578.389 50.0412 580.621 45.677C583.592 39.8675 583.689 33.0747 581.399 27.3906C579.518 27.5966 577.677 28.1396 575.95 28.9969C576.792 31.6128 577.252 34.4363 577.252 37.3808C577.252 44.0918 574.864 50.1737 570.996 54.6032ZM572.274 27.5476C570.875 24.5149 568.847 21.9089 566.384 19.9482C563.868 21.9509 561.806 24.6269 560.404 27.743C562.636 29.3536 564.618 31.4722 566.201 34.0539C567.85 31.3665 569.931 29.1807 572.274 27.5476ZM567.818 37.1769C569.251 34.4171 571.182 32.1868 573.408 30.5486C574.051 32.6935 574.399 34.9913 574.399 37.3808C574.399 42.8972 572.544 47.9252 569.494 51.7125C570.319 46.9283 569.82 41.8328 567.818 37.1769ZM564.585 37.1769C563.216 34.541 561.394 32.3885 559.293 30.7732C558.693 32.8538 558.369 35.0745 558.369 37.3808C558.369 42.6143 560.038 47.4083 562.814 51.1203C562.128 46.5097 562.666 41.6413 564.585 37.1769ZM566.201 53.2863C567.272 49.4425 567.316 45.2489 566.201 41.2736C565.086 45.2489 565.131 49.4425 566.201 53.2863ZM551.782 45.677C554.116 50.2396 557.802 53.3724 561.944 54.7987C557.974 50.3535 555.516 44.1913 555.516 37.3808C555.516 34.496 555.957 31.7277 556.767 29.1567C554.95 28.2068 552.999 27.6091 551.004 27.3906C548.714 33.0747 548.81 39.8675 551.782 45.677Z" fill="black"/>
<path d="M1097.39 16.7039L1078.71 41.9669H1095.52L1093.66 58.8091L1112.34 33.5459H1095.52L1097.39 16.7039Z" fill="black"/>
<path d="M1138.8 34.3136V42.1065H1128.82V52.7808H1120.98V21.1362H1140.9V28.9293H1128.82V34.3136H1138.8Z" fill="black"/>
<path d="M1151.83 21.1362V52.7808H1144.62V21.1362H1151.83Z" fill="black"/>
<path d="M1163.73 27.9846C1164.85 27.9846 1165.94 28.268 1167 28.8347C1168.09 29.37 1168.99 30.0628 1169.69 30.9129V28.6931H1176.9V52.7808H1169.69V48.766C1169.15 50.0884 1168.34 51.2062 1167.25 52.1194C1166.16 53.0326 1164.85 53.4894 1163.31 53.4894C1161.72 53.4894 1160.22 53.0326 1158.83 52.1194C1157.43 51.2062 1156.28 49.8051 1155.39 47.9158C1154.52 45.9953 1154.09 43.5867 1154.09 40.6897C1154.09 37.9817 1154.52 35.6832 1155.39 33.794C1156.28 31.9047 1157.46 30.4721 1158.91 29.496C1160.39 28.4884 1162 27.9846 1163.73 27.9846ZM1165.24 35.9194C1164.21 35.9194 1163.34 36.3917 1162.64 37.3363C1161.97 38.2809 1161.64 39.3987 1161.64 40.6897C1161.64 41.9806 1161.98 43.0669 1162.68 43.9486C1163.38 44.8303 1164.31 45.271 1165.45 45.271C1166.07 45.271 1166.69 45.0979 1167.34 44.7517C1167.98 44.3735 1168.53 43.8227 1168.97 43.0984C1169.45 42.3426 1169.69 41.3824 1169.69 40.2174V37.9031C1169.07 37.3363 1168.37 36.864 1167.59 36.4861C1166.83 36.1083 1166.05 35.9194 1165.24 35.9194Z" fill="black"/>
<path d="M1188.08 27.9846C1189.48 27.9846 1190.77 28.2208 1191.94 28.6931C1193.14 29.1339 1194.11 29.7479 1194.83 30.5351V36.9112C1194.11 36.4074 1193.28 35.9351 1192.36 35.4943C1191.44 35.022 1190.44 34.7858 1189.38 34.7858C1188.71 34.7858 1188.11 34.9433 1187.58 35.2581C1187.08 35.5415 1186.83 35.9981 1186.83 36.6278C1186.83 37.0686 1186.98 37.3992 1187.29 37.6197C1187.59 37.8401 1188.19 38.0762 1189.09 38.3281L1190.39 38.706C1194.11 39.7765 1195.96 42.0278 1195.96 45.4599C1195.96 47.0344 1195.55 48.4355 1194.71 49.6635C1193.9 50.8599 1192.82 51.8046 1191.48 52.4975C1190.17 53.1585 1188.74 53.4894 1187.2 53.4894C1185.61 53.4894 1184.13 53.2371 1182.76 52.7335C1181.39 52.198 1180.21 51.5528 1179.24 50.797V44.468C1180.24 45.1608 1181.37 45.7431 1182.63 46.2157C1183.92 46.6878 1185.06 46.9243 1186.07 46.9243C1186.88 46.9243 1187.47 46.8137 1187.83 46.5934C1188.22 46.373 1188.42 45.9796 1188.42 45.4126C1188.42 44.972 1188.19 44.6411 1187.75 44.4208C1187.3 44.169 1186.66 43.8857 1185.82 43.5709L1183.68 42.8151C1182.12 42.2796 1180.97 41.4455 1180.24 40.3118C1179.52 39.1468 1179.15 37.7299 1179.15 36.061C1179.15 34.3922 1179.54 32.9596 1180.33 31.7631C1181.11 30.5665 1182.17 29.6377 1183.51 28.9765C1184.88 28.3152 1186.41 27.9846 1188.08 27.9846Z" fill="black"/>
<path d="M1210.84 27.9845C1213.02 27.9845 1214.8 28.8189 1216.17 30.4877C1217.56 32.1565 1218.26 34.6282 1218.26 37.9029V52.7806H1211.05L1211.01 39.1781C1211.01 37.9816 1210.71 37.1472 1210.13 36.6749C1209.54 36.1711 1208.88 35.9192 1208.16 35.9192C1207.37 35.9192 1206.72 36.1554 1206.19 36.6277C1205.66 37.0685 1205.19 37.6038 1204.8 38.2335V52.7806H1197.59V21.136H1204.8V31.8101C1205.47 30.7711 1206.28 29.8737 1207.23 29.118C1208.21 28.3623 1209.41 27.9845 1210.84 27.9845Z" fill="black"/>
<path d="M1217.9 21.3203V22.3252H1216.82V25.3826H1215.81V22.3252H1214.73V21.3203H1217.9Z" fill="black"/>
<path d="M1222.08 21.2595V25.401H1221.06V23.3912L1220.32 24.3352H1220.01L1219.27 23.3912V25.401H1218.25V21.2595H1218.61L1220.17 23.0257L1221.72 21.2595H1222.08Z" fill="black"/>
<path d="M347.618 46.4975V26.1492H350.912V46.4975H347.618Z" fill="black"/>
<path d="M319.739 26.7119L326.703 46.4974H329.418L336.458 26.7119H332.812L328.101 40.6033L323.434 26.7119H319.739Z" fill="black"/>
<path fill-rule="evenodd" clip-rule="evenodd" d="M336.95 45.8501C337.938 46.4694 339.045 46.779 340.269 46.779C341.492 46.779 342.59 46.4694 343.562 45.8501C344.551 45.2125 345.33 44.3585 345.9 43.289C346.47 42.2007 346.755 40.9906 346.755 39.6585C346.755 38.3263 346.47 37.1349 345.9 36.0841C345.33 35.0147 344.551 34.1704 343.562 33.5512C342.59 32.9132 341.484 32.5942 340.243 32.5942C339.037 32.5942 337.938 32.9132 336.95 33.5512C335.961 34.1704 335.181 35.0147 334.611 36.0841C334.041 37.1349 333.757 38.3263 333.757 39.6585C333.757 40.9906 334.041 42.2007 334.611 43.289C335.198 44.3585 335.977 45.2125 336.95 45.8501ZM341.878 42.895C341.408 43.1953 340.863 43.3456 340.243 43.3456C339.64 43.3456 339.104 43.1953 338.634 42.895C338.165 42.576 337.796 42.1445 337.528 41.6006C337.26 41.0375 337.126 40.3996 337.126 39.6866C337.126 38.9737 337.26 38.3451 337.528 37.801C337.796 37.2569 338.165 36.8347 338.634 36.5345C339.104 36.2155 339.64 36.056 340.243 36.056C340.863 36.056 341.408 36.2155 341.878 36.5345C342.347 36.8347 342.716 37.2569 342.984 37.801C343.252 38.3451 343.386 38.9737 343.386 39.6866C343.386 40.3996 343.252 41.0375 342.984 41.6006C342.732 42.1445 342.364 42.576 341.878 42.895Z" fill="black"/>
<path d="M354.886 46.0191C355.724 46.5256 356.68 46.779 357.753 46.779C358.825 46.779 359.772 46.5349 360.593 46.0472C361.432 45.5408 362.077 44.8372 362.529 43.9363C362.999 43.0359 363.233 41.9851 363.233 40.784V32.9038H359.94V40.6998C359.94 41.5443 359.747 42.2007 359.361 42.67C358.976 43.139 358.44 43.3737 357.753 43.3737C357.3 43.3737 356.906 43.2702 356.571 43.064C356.236 42.8575 355.984 42.5572 355.817 42.1632C355.649 41.7505 355.565 41.2628 355.565 40.6998V32.9038H352.246V40.784C352.246 41.9664 352.481 43.0078 352.95 43.9082C353.42 44.8091 354.065 45.5123 354.886 46.0191Z" fill="black"/>
<path d="M364.599 46.4974V32.9038H367.893V34.0832C368.187 33.7612 368.522 33.49 368.898 33.2696C369.602 32.8381 370.399 32.6223 371.287 32.6223C372.125 32.6223 372.887 32.8381 373.575 33.2696C374.151 33.6156 374.627 34.0867 375.003 34.6829C375.409 34.1026 375.905 33.6409 376.491 33.2978C377.229 32.8475 378.05 32.6223 378.955 32.6223C379.86 32.6223 380.673 32.8381 381.394 33.2696C382.115 33.6824 382.684 34.2828 383.104 35.0709C383.523 35.8589 383.732 36.7971 383.732 37.8853V46.4974H380.439V38.4763C380.439 37.6883 380.212 37.0785 379.76 36.647C379.324 36.1966 378.779 35.9715 378.125 35.9715C377.706 35.9715 377.313 36.0747 376.944 36.2811C376.592 36.4687 376.315 36.7502 376.114 37.1254C375.913 37.5007 375.812 37.951 375.812 38.4763V46.4974H372.519V38.4763C372.519 37.6883 372.292 37.0785 371.84 36.647C371.404 36.1966 370.859 35.9715 370.206 35.9715C369.77 35.9715 369.376 36.0747 369.024 36.2811C368.672 36.4687 368.395 36.7502 368.194 37.1254C367.993 37.5007 367.893 37.951 367.893 38.4763V46.4974H364.599Z" fill="black"/>
<path fill-rule="evenodd" clip-rule="evenodd" d="M387.558 45.8782C388.547 46.4788 389.679 46.779 390.953 46.779C391.942 46.779 392.855 46.5818 393.693 46.1878C394.548 45.7939 395.269 45.2125 395.855 44.4432L393.919 42.2761C393.551 42.745 393.115 43.1016 392.612 43.3456C392.109 43.5705 391.548 43.683 390.928 43.683C390.24 43.683 389.637 43.5237 389.117 43.2046C388.598 42.8669 388.195 42.3979 387.91 41.7974C387.803 41.55 387.717 41.286 387.653 41.0057L396.534 40.9813C396.601 40.6623 396.643 40.3809 396.66 40.137C396.694 39.8743 396.71 39.621 396.71 39.377C396.71 38.0824 396.45 36.9285 395.931 35.9153C395.428 34.8833 394.724 34.0765 393.819 33.4949C392.931 32.8944 391.9 32.5942 390.726 32.5942C389.536 32.5942 388.455 32.9132 387.483 33.5512C386.511 34.1704 385.74 35.0147 385.17 36.0841C384.617 37.1349 384.34 38.3357 384.34 39.6866C384.34 41.0562 384.625 42.2761 385.195 43.3456C385.782 44.4147 386.569 45.2593 387.558 45.8782ZM387.656 38.247C387.715 37.9981 387.791 37.765 387.885 37.5477C388.153 36.9472 388.531 36.4875 389.017 36.1686C389.503 35.8308 390.073 35.662 390.726 35.662C391.347 35.662 391.866 35.8121 392.285 36.1123C392.721 36.3937 393.048 36.8065 393.266 37.3506C393.379 37.6126 393.468 37.905 393.535 38.2279L387.656 38.247Z" fill="black"/>
<path fill-rule="evenodd" clip-rule="evenodd" d="M299.496 54.6712C307.945 54.6712 314.794 47.0042 314.794 37.5463C314.794 28.0886 307.945 20.4216 299.496 20.4216C291.048 20.4216 284.198 28.0886 284.198 37.5463C284.198 47.0042 291.048 54.6712 299.496 54.6712ZM305.832 27.0647C306.014 27.2366 306.118 27.4892 306.118 27.7554L306.118 31.1959L306.118 31.4223L306.118 31.4494V42.9665C306.118 44.9666 304.669 46.5878 302.882 46.5878C301.096 46.5878 299.647 44.9666 299.647 42.9665C299.647 40.966 301.096 39.3446 302.882 39.3446C303.472 39.3446 304.024 39.521 304.5 39.8292V32.491L296.412 34.0004V44.7771C296.412 46.7772 294.963 48.3988 293.176 48.3988C291.39 48.3988 289.941 46.7772 289.941 44.7771C289.941 42.777 291.39 41.1555 293.176 41.1555C293.766 41.1555 294.319 41.3319 294.794 41.6399L294.794 33.2331L294.794 33.0067L294.794 32.9796V29.5662C294.794 29.1237 295.08 28.746 295.47 28.6732L305.176 26.8624C305.411 26.8186 305.65 26.8926 305.832 27.0647Z" fill="black"/>
<path fill-rule="evenodd" clip-rule="evenodd" d="M821.889 29.4315C824.114 26.0794 827.678 23.9077 831.695 23.9077C835.735 23.9077 839.317 26.105 841.54 29.4907C841.445 29.5997 841.359 29.7126 841.281 29.8254C840.874 30.4158 840.568 31.1763 840.322 31.9486C839.828 33.5019 839.451 35.5308 839.102 37.4307L839.071 37.6015C838.723 39.4979 838.399 41.2616 838.007 42.5709C837.832 43.1591 837.665 43.5749 837.517 43.8412C837.363 43.5728 837.188 43.1519 837.002 42.5552C836.584 41.2084 836.232 39.3764 835.858 37.4204L835.846 37.3563V37.3562C835.488 35.4774 835.107 33.4838 834.633 31.9579C834.395 31.1913 834.102 30.4384 833.72 29.8535C833.344 29.2794 832.72 28.6315 831.806 28.6315C830.898 28.6315 830.27 29.2724 829.889 29.84C829.5 30.4212 829.196 31.171 828.945 31.9379C828.441 33.4823 828.029 35.5024 827.645 37.4049L827.606 37.6015C827.226 39.4861 826.871 41.2481 826.467 42.5599C826.314 43.0608 826.168 43.4419 826.037 43.7142C825.908 43.4432 825.767 43.0646 825.617 42.5679C825.23 41.2841 824.892 39.5715 824.528 37.732L824.464 37.4101C824.087 35.5064 823.678 33.4826 823.167 31.9334C822.913 31.1636 822.602 30.41 822.2 29.8261C822.109 29.694 822.005 29.5598 821.889 29.4315ZM820.542 32.0054C820.648 32.2398 820.76 32.5303 820.876 32.8815C821.319 34.2225 821.694 36.0523 822.08 38.0022L822.155 38.3821C822.507 40.1613 822.872 42.0121 823.303 43.4419C823.532 44.2025 823.809 44.9473 824.165 45.5262C824.501 46.0737 825.105 46.7809 826.033 46.7809C826.959 46.7809 827.564 46.0771 827.903 45.5321C828.262 44.9545 828.543 44.2105 828.777 43.4496C829.225 41.9914 829.606 40.0972 829.972 38.2845V38.2844L830.027 38.0073C830.421 36.0562 830.8 34.2228 831.239 32.8769C831.443 32.2534 831.633 31.819 831.799 31.5495C831.956 31.8167 832.136 32.2442 832.326 32.857C832.745 34.2039 833.097 36.0358 833.47 37.9919L833.482 38.056C833.841 39.9348 834.221 41.9284 834.696 43.4542C834.934 44.2211 835.226 44.974 835.609 45.5588C835.984 46.133 836.609 46.7809 837.523 46.7809C838.441 46.7809 839.064 46.1271 839.435 45.5478C839.811 44.96 840.094 44.2046 840.323 43.439C840.763 41.9684 841.113 40.0603 841.446 38.2452V38.2451L841.494 37.9816C841.853 36.0279 842.197 34.2032 842.623 32.8662C842.715 32.5754 842.806 32.3274 842.892 32.1191C843.544 33.7922 843.906 35.6397 843.906 37.5817C843.906 45.1336 838.439 51.2559 831.695 51.2559C824.951 51.2559 819.484 45.1336 819.484 37.5817C819.484 35.5956 819.862 33.7083 820.542 32.0054ZM831.695 21.1729C823.602 21.1729 817.042 28.5194 817.042 37.5817C817.042 46.6441 823.602 53.9906 831.695 53.9906C839.788 53.9906 846.348 46.6441 846.348 37.5817C846.348 28.5194 839.788 21.1729 831.695 21.1729ZM831.974 31.3206C831.974 31.321 831.971 31.3235 831.965 31.3272C831.971 31.3221 831.974 31.3203 831.974 31.3206ZM831.636 31.3225C831.631 31.3186 831.628 31.3159 831.628 31.3156C831.628 31.3152 831.631 31.3172 831.636 31.3225ZM837.337 44.1008C837.337 44.1008 837.34 44.0979 837.345 44.094C837.34 44.0991 837.337 44.1012 837.337 44.1008ZM837.692 44.0898C837.698 44.0936 837.701 44.0962 837.701 44.0966C837.701 44.097 837.698 44.0949 837.692 44.0898ZM825.783 44.1254C825.783 44.125 825.787 44.1212 825.794 44.1156C825.787 44.1228 825.783 44.1258 825.783 44.1254ZM826.278 44.1182C826.285 44.1237 826.288 44.1275 826.288 44.1279C826.288 44.1284 826.285 44.1258 826.278 44.1182Z" fill="black"/>
<path d="M854.439 47.2962L850.886 33.6851H853.998L856.106 43.4817L858.556 33.6851H862.036L864.487 43.4817L866.619 33.6851H869.731L866.153 47.2962H862.894L860.296 37.1153L857.698 47.2962H854.439Z" fill="black"/>
<path d="M874.298 47.6256C873.252 47.6256 872.394 47.4422 871.725 47.0764C871.055 46.6923 870.557 46.1892 870.23 45.5672C869.903 44.9451 869.74 44.2591 869.74 43.5092C869.74 42.2468 870.181 41.2223 871.063 40.4357C871.945 39.649 873.269 39.2557 875.033 39.2557H878.121V38.9263C878.121 37.9933 877.884 37.3073 877.41 36.8682C876.936 36.4291 876.348 36.2096 875.646 36.2096C875.009 36.2096 874.453 36.3834 873.979 36.731C873.505 37.0604 873.211 37.5543 873.097 38.2129H870.034C870.116 37.225 870.41 36.3651 870.916 35.6334C871.439 34.9016 872.109 34.3436 872.925 33.9594C873.743 33.5569 874.657 33.3557 875.67 33.3557C877.402 33.3557 878.766 33.8405 879.763 34.8101C880.759 35.7797 881.258 37.1518 881.258 38.9263V47.2961H878.586L878.292 45.101C877.933 45.8327 877.427 46.4361 876.773 46.9121C876.136 47.3876 875.311 47.6256 874.298 47.6256ZM875.009 44.8812C875.907 44.8812 876.601 44.5517 877.091 43.8933C877.598 43.2348 877.917 42.4205 878.047 41.451H875.376C874.543 41.451 873.947 41.6248 873.587 41.9724C873.228 42.3017 873.048 42.7135 873.048 43.2073C873.048 43.7379 873.228 44.1495 873.587 44.4421C873.947 44.7347 874.42 44.8812 875.009 44.8812Z" fill="black"/>
<path d="M886.195 47.2962L881.736 33.6851H885.019L888.107 43.9759L891.195 33.6851H894.478L889.994 47.2962H886.195Z" fill="black"/>
<path d="M900.784 47.6256C899.559 47.6256 898.472 47.3326 897.525 46.7473C896.578 46.1617 895.834 45.3385 895.295 44.2773C894.756 43.2166 894.486 41.9907 894.486 40.6003C894.486 39.1916 894.748 37.9385 895.27 36.8408C895.81 35.7431 896.545 34.8924 897.476 34.2887C898.423 33.6667 899.534 33.3557 900.809 33.3557C902.001 33.3557 903.055 33.6484 903.97 34.2338C904.885 34.8193 905.596 35.6242 906.102 36.6487C906.625 37.6549 906.886 38.78 906.886 40.024C906.886 40.2253 906.878 40.4357 906.862 40.6552C906.862 40.8747 906.853 41.1034 906.837 41.3412H897.599C897.664 42.4023 897.991 43.2348 898.579 43.8386C899.183 44.4421 899.91 44.744 900.76 44.744C901.397 44.744 901.928 44.5886 902.353 44.2773C902.794 43.9483 903.12 43.5274 903.333 43.015H906.519C906.29 43.8751 905.906 44.6618 905.367 45.3754C904.844 46.0702 904.19 46.619 903.406 47.0217C902.639 47.424 901.764 47.6256 900.784 47.6256ZM900.809 36.2096C900.041 36.2096 899.363 36.4566 898.775 36.9505C898.187 37.4262 897.811 38.158 897.647 39.1459H903.7C903.651 38.2495 903.357 37.536 902.818 37.0054C902.279 36.4749 901.609 36.2096 900.809 36.2096Z" fill="black"/>
<path d="M908.544 47.2962V27.5381H911.681V47.2962H908.544Z" fill="black"/>
<path d="M919.811 47.6256C918.586 47.6256 917.5 47.3326 916.552 46.7473C915.605 46.1617 914.861 45.3385 914.322 44.2773C913.783 43.2166 913.514 41.9907 913.514 40.6003C913.514 39.1916 913.775 37.9385 914.298 36.8408C914.837 35.7431 915.572 34.8924 916.503 34.2887C917.451 33.6667 918.562 33.3557 919.836 33.3557C921.029 33.3557 922.083 33.6484 922.997 34.2338C923.912 34.8193 924.623 35.6242 925.129 36.6487C925.652 37.6549 925.914 38.78 925.914 40.024C925.914 40.2253 925.905 40.4357 925.889 40.6552C925.889 40.8747 925.881 41.1034 925.864 41.3412H916.626C916.691 42.4023 917.018 43.2348 917.606 43.8386C918.21 44.4421 918.938 44.744 919.787 44.744C920.424 44.744 920.955 44.5886 921.38 44.2773C921.821 43.9483 922.148 43.5274 922.36 43.015H925.546C925.317 43.8751 924.933 44.6618 924.394 45.3754C923.871 46.0702 923.218 46.619 922.434 47.0217C921.666 47.424 920.792 47.6256 919.811 47.6256ZM919.836 36.2096C919.068 36.2096 918.39 36.4566 917.802 36.9505C917.214 37.4262 916.838 38.158 916.675 39.1459H922.728C922.679 38.2495 922.385 37.536 921.845 37.0054C921.306 36.4749 920.637 36.2096 919.836 36.2096Z" fill="black"/>
<path d="M932.595 47.6256C931.517 47.6256 930.569 47.4333 929.753 47.0493C928.935 46.6466 928.282 46.0978 927.792 45.4025C927.302 44.7076 927.008 43.9026 926.91 42.9879H930.071C930.169 43.5181 930.431 43.9758 930.855 44.3599C931.296 44.7258 931.86 44.9087 932.546 44.9087C933.232 44.9087 933.731 44.7533 934.041 44.4421C934.368 44.1312 934.531 43.7743 934.531 43.372C934.531 42.7864 934.303 42.393 933.845 42.1919C933.387 41.9724 932.75 41.762 931.933 41.5608C931.411 41.4327 930.88 41.2772 930.341 41.0943C929.801 40.9113 929.303 40.6826 928.846 40.4082C928.404 40.1155 928.045 39.7496 927.767 39.3105C927.49 38.8532 927.351 38.2952 927.351 37.6366C927.351 36.4291 927.776 35.4138 928.625 34.5906C929.491 33.7673 930.7 33.3557 932.252 33.3557C933.69 33.3557 934.833 33.7307 935.683 34.4808C936.549 35.2309 937.063 36.2645 937.227 37.5817H934.262C934.082 36.5755 933.404 36.0724 932.228 36.0724C931.64 36.0724 931.182 36.2005 930.855 36.4566C930.545 36.7127 930.39 37.0329 930.39 37.4171C930.39 37.8196 930.627 38.1397 931.1 38.3776C931.574 38.6154 932.203 38.8349 932.987 39.0361C933.837 39.2557 934.613 39.5026 935.315 39.7771C936.034 40.0332 936.606 40.4265 937.031 40.9571C937.456 41.4693 937.668 42.2102 937.668 43.1797C937.684 44.0216 937.488 44.7804 937.08 45.4575C936.671 46.1342 936.083 46.6648 935.315 47.0493C934.548 47.4333 933.641 47.6256 932.595 47.6256Z" fill="black"/>
<path d="M944.49 47.6256C943.412 47.6256 942.464 47.4333 941.647 47.0493C940.83 46.6466 940.177 46.0978 939.687 45.4025C939.197 44.7076 938.903 43.9026 938.805 42.9879H941.966C942.064 43.5181 942.325 43.9758 942.75 44.3599C943.191 44.7258 943.755 44.9087 944.441 44.9087C945.127 44.9087 945.625 44.7533 945.936 44.4421C946.263 44.1312 946.426 43.7743 946.426 43.372C946.426 42.7864 946.197 42.393 945.74 42.1919C945.282 41.9724 944.645 41.762 943.828 41.5608C943.305 41.4327 942.775 41.2772 942.235 41.0943C941.696 40.9113 941.198 40.6826 940.74 40.4082C940.3 40.1155 939.94 39.7496 939.662 39.3105C939.384 38.8532 939.246 38.2952 939.246 37.6366C939.246 36.4291 939.671 35.4138 940.52 34.5906C941.386 33.7673 942.595 33.3557 944.147 33.3557C945.585 33.3557 946.728 33.7307 947.578 34.4808C948.443 35.2309 948.958 36.2645 949.121 37.5817H946.156C945.977 36.5755 945.299 36.0724 944.122 36.0724C943.534 36.0724 943.077 36.2005 942.75 36.4566C942.439 36.7127 942.284 37.0329 942.284 37.4171C942.284 37.8196 942.521 38.1397 942.995 38.3776C943.469 38.6154 944.098 38.8349 944.882 39.0361C945.732 39.2557 946.508 39.5026 947.21 39.7771C947.929 40.0332 948.501 40.4265 948.925 40.9571C949.35 41.4693 949.563 42.2102 949.563 43.1797C949.579 44.0216 949.383 44.7804 948.975 45.4575C948.566 46.1342 947.978 46.6648 947.21 47.0493C946.442 47.4333 945.535 47.6256 944.49 47.6256Z" fill="black"/>
</svg>
